<svg viewBox="0 0 575 575" class="roots-wrapper"><g transform="rotate(0 287.5005 240.232)"><svg viewBoxSize="575" data-root-id="0620363845704" xmlns="http://www.w3.org/2000/svg" id="Layer_1" viewBox="27.479999542236328 43.64999771118164 141.8100128173828 96.81001281738281" height="240.46422488462719" width="352.2387015453587" y="120" x="111.381" preserveAspectRatio="xMinYMin" zoom="1" editorType="buyer" data-layer-role="icon" style="position: absolute; height: 240.464px; width: 352.239px; top: 120px; left: 111.381px; transform: rotate(0deg);"><polygon class="cls-1" points="114.33 44.21 114.33 47.79 163.72 69.34 114.33 44.21" name="Layer %{number}" zoom="1" data-layer-id="6756086545705" style="fill: rgb(17, 2, 77); fill-opacity: 1;"></polygon><polygon class="cls-1" points="114.33 55.36 114.33 57.7 163.72 77.55 114.33 55.36" name="Layer %{number}" zoom="1" data-layer-id="4919185945705" style="fill: rgb(17, 2, 77); fill-opacity: 1;"></polygon><polygon class="cls-1" points="114.33 66.49 114.33 67.64 162.98 85.81 114.33 66.49" name="Layer %{number}" zoom="1" data-layer-id="2469117245705" style="fill: rgb(17, 2, 77); fill-opacity: 1;"></polygon><polygon class="cls-1" points="114.33 77.07 114.33 78.21 161.81 95.28 114.33 77.07" name="Layer %{number}" zoom="1" data-layer-id="6716552645705" style="fill: rgb(17, 2, 77); fill-opacity: 1;"></polygon><path class="cls-1" d="m114.52,109.74s-.04-.06-.06-.09c-.66-.93-1.39-1.72-2.17-2.37v-63.63l-56.69,10.76-.11,10.74-17.86,3.39c-.76.89-1.65,3.82-2.52,7.4v-.25c0-.67-.66-1.14-1.29-.92l-2.34.8c-.86.29-1.43,1.1-1.43,2.01v12.81h2c-.25,1.27-.47,2.31-.63,3.02l-1.12,7.55-.1,6.23-.16,6.52h0s-.02.9-.02.9l-.48,3.47-1.22,1.26.59,5.79,2.89,2.98,6.26,1.29c1.37,4.75,4.07,7.97,7.18,7.97.02,0,.04,0,.06,0-.96-1.16-1.81-2.62-2.48-4.33.7,1.59,1.58,2.88,2.58,3.82.17.16.34.31.52.45.02.02.05.04.07.06h.81c-.06-.07-.12-.15-.18-.22-.44-.55-.85-1.16-1.22-1.83-.4-.7-.76-1.46-1.08-2.28.32.73.69,1.4,1.08,2.01.5.76,1.05,1.42,1.64,1.95.15.13.3.26.45.38h.83c-.19-.23-.38-.48-.57-.74-.73-1.02-1.38-2.23-1.92-3.59.61,1.37,1.35,2.53,2.18,3.43.32.34.65.65.99.91h.6c-.35-.42-.68-.87-.99-1.37-.56-.88-1.06-1.87-1.49-2.97.48,1.08,1.04,2.03,1.67,2.82.47.59.97,1.11,1.5,1.52h.73c-.26-.31-.51-.65-.76-1.01-.26-.39-.52-.81-.76-1.24-.35-.64-.68-1.34-.97-2.08.32.72.67,1.38,1.06,1.97.47.73,1,1.36,1.55,1.88.18.17.37.33.56.48h1.48c2.96,0,5.56-2.94,6.98-7.33h23.07l-3.31-6.09v-5.87l2.92-1.17.13-1.01.64-3.15.64-16.2,1.22-3.63-.24-28.34-.79-2.08,23.75,4.33v.02s2.33,31.12,2.33,31.12l-.2,8.09c-.89-.4-1.82-.62-2.79-.62-1.63,0-3.17.61-4.55,1.7-.32.25-.62.52-.92.82-.21.21-.42.44-.63.67-.31.36-.61.75-.89,1.16-.09.13-.18.26-.27.4-.56.85-1.06,1.81-1.51,2.84-.67,1.56-1.21,3.3-1.57,5.18-.1.5-.18,1.02-.26,1.54.74,0,1.4-.33,1.83-.85.08-.1.15-.2.21-.31.02-.03.04-.06.05-.09.05-.11.09-.22.13-.33.28-.98.61-1.92.98-2.8.59-1.39,1.28-2.63,2.06-3.7.55-.75,1.14-1.41,1.77-1.96.48-.42.97-.79,1.49-1.09.62-.36,1.26-.63,1.93-.79.51-.13,1.04-.19,1.58-.19.19,0,.38.01.57.03.95.08,1.86.37,2.73.84.49.26.96.58,1.41.96.04.03.08.07.12.1.61.52,1.19,1.13,1.73,1.83l1.8,3.67,27.1,4.53c.74-1.73,1.67-2.2,3.05-2.31l-32.98-7.56Zm-83.08,4.05l-.13-6.49h2.49c.98,0,1.85.61,2.19,1.53l.62,1.71.02.1s0-.03,0-.05l1.59,4.38-6.77-1.18Zm35.81,9.83h-26.9l-1.4-7.19h2.37s-.04.31-.04.31h23.25l-.07-.45,3.72-.02-.93,7.36Zm13.93-10.49l-11.13,1.84,2.23-6.14c.33-.92,1.21-1.53,2.19-1.53h8.4l-1.68,5.83Zm1.28-9.22l-8.67,1.34c-1.46.22-2.71,1.16-3.32,2.51-1.84,4.04-2.29,6.85-2.29,6.85l-3.95.29-.17-1.02h-22.39l-.2,1.47-1.89-.14-2.04-6.54c-.44-1.42-1.67-2.45-3.14-2.64l-2.96-.39.62-6.61,6.27,1.72c7.44.31,18.14.07,29.84-1.65,2.43-.36,4.69-1.53,10.07-2.34l4.69-1.48-.47,8.64Zm.76-38.07v.1c-.1,1.34-.15,2.73-.17,4.14-.01.34-.01.67-.01,1.02.01,3.29.18,6.6.13,9.24.01.1.01.21,0,.3.03,3.5-.09,6.26-.79,7.32-2.17,3.22-15.06,7.13-27.21,8.81-10.01,1.38-19.53,1.25-22.13-2.03.06-.21.23-1.26.5-2.83.08-.46.17-.97.26-1.51.36-2.09.81-4.73,1.3-7.42.85-4.7,1.8-9.57,2.52-12.06,1.28-.47,9.06-1.86,17.84-3.22,8.95-1.39,18.95-2.74,24.19-3.04,1.47-.07,2.56-.07,3.16.02.13.01.23.03.32.07h0c.03.19.06.36.07.57.01.15.02.31.02.49v.04Z" name="Layer %{number}" zoom="1" data-layer-id="1351366645705" style="fill: rgb(17, 2, 77); fill-opacity: 1;"></path><path class="cls-1" d="m159.45,121.41l9.84.89-11.14-2.56c.51.5.95,1.05,1.3,1.66Z" name="Layer %{number}" zoom="1" data-layer-id="1799548445705" style="fill: rgb(17, 2, 77); fill-opacity: 1;"></path><path class="cls-1" d="m116.48,121.35c-.37-2.34-1.02-4.45-1.88-6.21-1.58-3.24-3.87-5.27-6.41-5.27-.26,0-.52.03-.77.07-.88.14-1.72.53-2.5,1.12-.25.19-.49.4-.73.63-1.61,1.56-2.92,4.03-3.73,7.05-.58,2.16-.91,4.61-.91,7.2v1.71c0,.67-.28,1.28-.73,1.72-.43.42-1.03.69-1.68.69h-4.65c1.42,4.39,4.02,7.33,6.98,7.33.02,0,.04,0,.06,0-.96-1.16-1.81-2.62-2.48-4.33.7,1.59,1.58,2.88,2.58,3.82.17.16.34.31.52.45.02.02.05.04.07.06h.81c-.06-.07-.12-.15-.18-.22-.43-.55-.85-1.16-1.22-1.83-.4-.7-.76-1.46-1.08-2.28.32.73.69,1.4,1.08,2.01.5.76,1.05,1.42,1.64,1.95.15.13.3.26.45.38h.83c-.19-.23-.38-.48-.57-.74-.73-1.02-1.38-2.23-1.92-3.59.61,1.37,1.35,2.53,2.18,3.43.32.34.65.65.99.91h.6c-.35-.42-.68-.87-.99-1.37-.56-.88-1.06-1.87-1.49-2.97.48,1.08,1.04,2.03,1.67,2.82.47.59.97,1.11,1.5,1.52h.73c-.26-.31-.51-.65-.76-1.01-.26-.39-.52-.81-.76-1.24-.35-.64-.68-1.34-.97-2.08.32.72.67,1.38,1.06,1.97.47.73,1,1.36,1.55,1.88.18.17.37.33.56.48h1.48c2.96,0,5.56-2.94,6.98-7.33h2.76c0-.08-.32-3.82-.32-4.11,0-1.6-.13-3.14-.36-4.59Zm-7.15,7.63c.96-1.39,1.59-3.56,1.59-5.99,0-.91-.09-1.77-.25-2.58-.23-1.18-.61-2.22-1.1-3.05.4.86.69,1.88.85,3.01.09.62.14,1.26.14,1.93,0,3.01-.94,5.6-2.3,6.84,1.03-1.38,1.7-3.62,1.7-6.15,0-.97-.1-1.89-.28-2.74-.23-1.11-.6-2.1-1.07-2.89.38.82.66,1.79.83,2.85.1.66.16,1.37.16,2.09,0,3.52-1.29,6.49-3.04,7.35-.02,0-.03.02-.05.02-1.82-.77-3.18-3.79-3.18-7.4,0-1.07.12-2.08.33-3,.52-2.22,1.58-3.89,2.88-4.42.28-.11.57-.17.87-.17,1.93,0,3.55,2.5,3.98,5.85.07.56.11,1.14.11,1.74,0,2.91-.88,5.43-2.17,6.71Z" name="Layer %{number}" zoom="1" data-layer-id="6683096645705" style="fill: rgb(17, 2, 77); fill-opacity: 1;"></path><path class="cls-1" d="m106.89,116.12s-.1-.02-.15-.02c-.83,0-1.54,1.37-1.88,3.36-.14.8-.22,1.69-.22,2.65,0,3.32.94,6.01,2.1,6.01.08,0,.15-.01.23-.04,1.05-.32,1.87-2.87,1.87-5.97,0-.71-.05-1.39-.12-2.02-.27-2.2-.98-3.8-1.83-3.97Z" name="Layer %{number}" zoom="1" data-layer-id="3559730645705" style="fill: rgb(17, 2, 77); fill-opacity: 1;"></path><path class="cls-1" d="m154.99,119.35c-.31-.02-.46-.04-.51-.05-.27.02-.52.08-.76.2-.13.06-.25.13-.37.22-.26.19-.49.43-.71.72-.08.11-.15.22-.23.34-.23.38-.43.82-.61,1.31-.59,1.64-.86,3.84-.86,6.14,0,.63.03,1.24.12,1.83,0,0,0,0,0,0h-5.03c.46,3.69,2.2,6.46,4.3,6.63h0s.2,0,.2,0h1.06c-.05-.05-.09-.12-.13-.17-.43-.55-.81-1.21-1.14-1.96-.05-.11-.1-.22-.14-.33.05.11.1.21.14.31.38.78.84,1.42,1.35,1.89.1.09.2.18.31.27h.34c-.11-.14-.22-.29-.33-.44-.41-.58-.78-1.25-1.08-2.03.34.77.76,1.42,1.23,1.93.18.2.38.38.58.53h.42c-.15-.18-.29-.37-.43-.57-.06-.09-.11-.18-.17-.27-.3-.48-.58-1.02-.81-1.62.26.59.56,1.1.9,1.54.19.24.38.46.59.65.1.1.21.19.32.27h.84c2.19,0,4.03-2.84,4.51-6.64h.69c.09-.58.12-1.2.12-1.83,0-2.77-.76-5.31-1.91-6.96-.79-1.13-1.76-1.85-2.8-1.91Zm1.46,10.71c-.22.79-.56,1.45-.99,1.86.33-.48.6-1.12.75-1.86.1-.48.16-1,.16-1.55,0-1.27-.3-2.41-.77-3.2.35.76.56,1.74.56,2.81,0,.7-.09,1.36-.25,1.94-.27.99-.73,1.76-1.3,2.13-.15.1-.3.17-.46.21-.81-.15-1.49-1.06-1.84-2.34-.05-.17-.09-.35-.12-.53.04.19.08.37.13.53.29.99.8,1.65,1.38,1.65s1.04-.61,1.34-1.53c.01-.04.03-.08.04-.12.17-.56.26-1.23.26-1.96,0-.77-.11-1.49-.3-2.08-.3-.92-.79-1.53-1.34-1.53-.63,0-1.18.79-1.45,1.94.35-1.55,1.17-2.65,2.14-2.65.06,0,.11,0,.17.02,1.2.16,2.15,2.02,2.15,4.3,0,.7-.09,1.37-.25,1.96Z" name="Layer %{number}" zoom="1" data-layer-id="0082860245705" style="fill: rgb(17, 2, 77); fill-opacity: 1;"></path><path class="cls-1" d="m81.84,66.33h0c-.08-.04-.18-.06-.31-.07-.57-.08-1.62-.08-3.02-.02-5.02.29-14.6,1.58-23.17,2.91-8.41,1.3-15.86,2.64-17.09,3.09-.69,2.39-1.6,7.06-2.42,11.56-.47,2.58-.9,5.11-1.25,7.11-.09.52-.17,1-.25,1.44.11.08.22.16.34.24,3.3,2.14,11.66,2.14,20.42,1.06,10.12-1.25,20.76-3.93,24.72-6.42.59-.37,1.04-.74,1.31-1.09.55-.72.73-2.39.76-4.58.01-.08.01-.19,0-.29.04-2.53-.12-5.7-.13-8.85,0-.33,0-.64.01-.97,0-1.38.04-2.76.16-4.06v-.04c0-.17-.01-.32-.02-.46-.01-.2-.03-.37-.06-.54Z" name="Layer %{number}" zoom="1" data-layer-id="1238615745705" style="fill: rgb(17, 2, 77); fill-opacity: 1;"></path><polygon class="cls-1" points="87.08 103.48 96.97 103.22 102.45 94 88.38 94 87.08 103.48" name="Layer %{number}" zoom="1" data-layer-id="8773380645705" style="fill: rgb(17, 2, 77); fill-opacity: 1;"></polygon><polygon class="cls-1" points="94.52 122.83 91.31 122.67 87.4 122.46 85.61 127.81 91.86 127.76 94.43 127.73 94.52 122.83" name="Layer %{number}" zoom="1" data-layer-id="7148260545705" style="fill: rgb(17, 2, 77); fill-opacity: 1;"></polygon><path class="cls-1" d="m96.4,89.62c-.05.58-.54,1.04-1.14,1.04h-8.38v.96h9.65c.6,0,1.08-.46,1.14-1.04h4.79l-2.14-22.12-12.63-2.39.74,22.83,2.4-.36v-19.44c0-.63.51-1.15,1.15-1.15h3.29c.57,0,1.04.42,1.13.96,0,.06.02.12.02.19v20.4s0,.07-.01.1Z" name="Layer %{number}" zoom="1" data-layer-id="9173097845705" style="fill: rgb(17, 2, 77); fill-opacity: 1;"></path><polygon class="cls-1" points="122.54 125.14 119.52 121.32 119.8 126.2 119.82 126.2 119.92 129.36 145.11 129.41 144.31 127.3 122.54 125.14" name="Layer %{number}" zoom="1" data-layer-id="4641307345705" style="fill: rgb(17, 2, 77); fill-opacity: 1;"></polygon><polygon class="cls-1" points="169.29 136.7 27.48 140.46 41.25 137.36 169.29 136.7" name="Layer %{number}" zoom="1" data-layer-id="8757265945705" style="fill: rgb(17, 2, 77); fill-opacity: 1;"></polygon></svg></g><g transform="rotate(0 287.5 446.86808016292235)"><svg viewBoxSize="575" data-root-id="7591328545705" xmlns="http://www.w3.org/2000/svg" y="438.7330799340405" x="185.35499572753906" height="16.270000457763672" width="204.29000854492188" viewBox="0.45000001788139343 8.65999984741211 204.29000854492188 16.270000457763672" zoom="1" editorType="buyer" data-layer-role="slogan" style="position: absolute; top: 438.733px; left: 185.355px; width: 204.29px; height: 16.27px; transform: rotate(0deg);"><g data-horizontal-grow="center" zoom="1" root="[object Object]" style="fill: rgb(17, 2, 77); fill-opacity: 1;"><path d="M6.97 24.63L3.55 24.63L0.45 8.94L3.31 8.94L4.65 16.86Q4.86 18.09 5.06 19.35Q5.27 20.60 5.46 21.87L5.46 21.87L5.54 21.87Q5.80 20.60 6.05 19.35Q6.31 18.09 6.56 16.86L6.56 16.86L8.47 8.94L10.92 8.94L12.83 16.86Q13.10 18.07 13.35 19.34Q13.59 20.60 13.87 21.87L13.87 21.87L13.97 21.87Q14.14 20.60 14.33 19.35Q14.53 18.09 14.70 16.86L14.70 16.86L16.08 8.94L18.75 8.94L15.76 24.63L12.27 24.63L10.34 16.39Q10.15 15.48 9.97 14.59Q9.79 13.70 9.64 12.78L9.64 12.78L9.56 12.78Q9.41 13.70 9.22 14.59Q9.03 15.48 8.86 16.39L8.86 16.39L6.97 24.63ZM30.88 24.63L21.19 24.63L21.19 8.94L30.64 8.94L30.64 11.30L24.00 11.30L24.00 15.29L29.63 15.29L29.63 17.65L24.00 17.65L24.00 22.28L30.88 22.28L30.88 24.63ZM48.23 24.63L38.91 24.63L38.91 8.94L41.71 8.94L41.71 22.28L48.23 22.28L48.23 24.63ZM53.77 24.63L50.97 24.63L50.97 8.94L53.77 8.94L53.77 24.63ZM60.55 24.63L57.74 24.63L57.74 8.94L60.55 8.94L60.55 16.06L60.61 16.06L66.17 8.94L69.30 8.94L64.45 15.06L70.10 24.63L67.02 24.63L62.78 17.27L60.55 20.07L60.55 24.63ZM81.76 24.63L72.08 24.63L72.08 8.94L81.53 8.94L81.53 11.30L74.88 11.30L74.88 15.29L80.51 15.29L80.51 17.65L74.88 17.65L74.88 22.28L81.76 22.28L81.76 24.63ZM95.76 24.63L92.93 24.63L92.93 11.30L88.43 11.30L88.43 8.94L100.28 8.94L100.28 11.30L95.76 11.30L95.76 24.63ZM108.29 24.93L108.29 24.93Q106.25 24.93 104.69 23.93Q103.13 22.94 102.24 21.10Q101.36 19.26 101.36 16.73L101.36 16.73Q101.36 14.19 102.24 12.38Q103.13 10.58 104.69 9.62Q106.25 8.66 108.29 8.66L108.29 8.66Q110.35 8.66 111.90 9.63Q113.45 10.60 114.33 12.39Q115.21 14.19 115.21 16.73L115.21 16.73Q115.21 19.26 114.33 21.10Q113.45 22.94 111.90 23.93Q110.35 24.93 108.29 24.93ZM108.29 22.49L108.29 22.49Q109.52 22.49 110.43 21.78Q111.34 21.07 111.84 19.77Q112.34 18.48 112.34 16.73L112.34 16.73Q112.34 14.97 111.84 13.71Q111.34 12.44 110.43 11.77Q109.52 11.09 108.29 11.09L108.29 11.09Q107.05 11.09 106.14 11.77Q105.23 12.44 104.74 13.71Q104.25 14.97 104.25 16.73L104.25 16.73Q104.25 18.48 104.74 19.77Q105.23 21.07 106.14 21.78Q107.05 22.49 108.29 22.49ZM125.70 24.63L123.17 24.63L123.17 8.94L126.34 8.94L129.10 16.61Q129.35 17.33 129.61 18.12Q129.86 18.90 130.10 19.67L130.10 19.67L130.20 19.67Q130.46 18.90 130.70 18.12Q130.95 17.33 131.18 16.61L131.18 16.61L133.90 8.94L137.06 8.94L137.06 24.63L134.49 24.63L134.49 17.50Q134.49 16.76 134.56 15.87Q134.62 14.99 134.71 14.10Q134.79 13.21 134.85 12.49L134.85 12.49L134.77 12.49L133.49 16.14L130.93 23.17L129.25 23.17L126.68 16.14L125.42 12.49L125.34 12.49Q125.42 13.21 125.50 14.10Q125.57 14.99 125.64 15.87Q125.70 16.76 125.70 17.50L125.70 17.50L125.70 24.63ZM147.15 24.93L147.15 24.93Q145.11 24.93 143.55 23.93Q141.99 22.94 141.11 21.10Q140.23 19.26 140.23 16.73L140.23 16.73Q140.23 14.19 141.11 12.38Q141.99 10.58 143.55 9.62Q145.11 8.66 147.15 8.66L147.15 8.66Q149.21 8.66 150.76 9.63Q152.31 10.60 153.19 12.39Q154.07 14.19 154.07 16.73L154.07 16.73Q154.07 19.26 153.19 21.10Q152.31 22.94 150.76 23.93Q149.21 24.93 147.15 24.93ZM147.15 22.49L147.15 22.49Q148.38 22.49 149.30 21.78Q150.21 21.07 150.71 19.77Q151.21 18.48 151.21 16.73L151.21 16.73Q151.21 14.97 150.71 13.71Q150.21 12.44 149.30 11.77Q148.38 11.09 147.15 11.09L147.15 11.09Q145.92 11.09 145.01 11.77Q144.09 12.44 143.60 13.71Q143.12 14.97 143.12 16.73L143.12 16.73Q143.12 18.48 143.60 19.77Q144.09 21.07 145.01 21.78Q145.92 22.49 147.15 22.49ZM163.01 24.63L159.68 24.63L154.82 8.94L157.79 8.94L159.98 16.82Q160.36 18.16 160.67 19.37Q160.98 20.58 161.36 21.94L161.36 21.94L161.46 21.94Q161.87 20.58 162.16 19.37Q162.46 18.16 162.84 16.82L162.84 16.82L165.01 8.94L167.86 8.94L163.01 24.63ZM179.45 24.63L169.77 24.63L169.77 8.94L179.22 8.94L179.22 11.30L172.57 11.30L172.57 15.29L178.20 15.29L178.20 17.65L172.57 17.65L172.57 22.28L179.45 22.28L179.45 24.63ZM190.28 24.63L187.48 24.63L187.48 8.94L190.28 8.94L190.28 24.63ZM200.22 24.63L197.40 24.63L197.40 11.30L192.89 11.30L192.89 8.94L204.74 8.94L204.74 11.30L200.22 11.30L200.22 24.63Z" transform="translate(0, 0)"></path></g></svg></g><g transform="rotate(0 287.5 408.03134188934627)"><svg viewBoxSize="575" data-root-id="2354950745705" xmlns="http://www.w3.org/2000/svg" y="388.4313434152252" viewBox="-2.0899999141693115 9.470000267028809 352.239990234375 39.19999694824219" x="111.3800048828125" height="39.19999694824219" width="352.239990234375" fontUrl="http://fonts.gstatic.com/s/montserrat/v26/JTUFjIg1_i6t8kCHKm459Wx7xQYXK0vOoz6jq0N6aX9-p7K5ILg.ttf" zoom="1" editorType="buyer" data-layer-role="brandName" style="position: absolute; top: 388.431px; width: 352.24px; height: 39.2px; left: 111.38px; transform: rotate(0deg);"><g data-horizontal-grow="center" zoom="1" root="[object Object]" style="fill: rgb(253, 102, 15); fill-opacity: 1;"><path d="M6.03 40.54L-2.09 40.54L13.70 23.45L13.03 27.35L4.36 11.22L11.60 11.22L17.63 22.78L14.66 22.70L25.05 11.22L32.75 11.22L17.93 27.35L18.14 23.50L27.43 40.54L20.10 40.54L13.74 28.31L16.80 28.44L6.03 40.54ZM45.11 40.88L45.11 40.88Q42.39 40.88 40.35 39.83Q38.32 38.78 37.32 36.59Q36.31 34.39 36.61 30.91L36.61 30.91Q36.86 26.89 38.26 23.92Q39.66 20.94 42.09 19.31Q44.52 17.67 47.83 17.67L47.83 17.67Q50.47 17.67 52.69 18.87Q54.91 20.06 56.25 22.30Q57.59 24.54 57.59 27.77L57.59 27.77Q57.59 30.57 56.63 32.98Q55.66 35.39 53.97 37.15Q52.27 38.91 50.01 39.89Q47.75 40.88 45.11 40.88ZM35.60 48.67L29.07 48.67L35.18 18.01L41.38 18.01L40.46 22.49L39.04 29.19L38.16 35.89L35.60 48.67ZM44.35 35.48L44.35 35.48Q46.32 35.48 47.79 34.53Q49.26 33.59 50.11 31.94Q50.97 30.28 50.97 28.06L50.97 28.06Q50.97 25.76 49.63 24.42Q48.29 23.08 45.82 23.08L45.82 23.08Q43.94 23.08 42.43 24.02Q40.92 24.96 40.08 26.62Q39.24 28.27 39.24 30.49L39.24 30.49Q39.24 32.79 40.59 34.14Q41.93 35.48 44.35 35.48ZM66.13 40.54L59.60 40.54L64.08 18.01L70.28 18.01L68.98 24.42L68.40 22.58Q69.90 19.85 72.33 18.76Q74.76 17.67 78.15 17.67L78.15 17.67L76.98 23.71Q76.56 23.66 76.21 23.64Q75.85 23.62 75.47 23.62L75.47 23.62Q72.58 23.62 70.76 25.05Q68.94 26.47 68.31 29.65L68.31 29.65L66.13 40.54ZM89.63 40.88L89.63 40.88Q86.11 40.88 83.54 39.62Q80.96 38.37 79.54 36.10Q78.11 33.84 78.11 30.78L78.11 30.78Q78.11 27.01 79.81 24.06Q81.51 21.11 84.50 19.39Q87.49 17.67 91.39 17.67L91.39 17.67Q94.70 17.67 97.09 18.91Q99.47 20.15 100.79 22.34Q102.11 24.54 102.11 27.60L102.11 27.60Q102.11 28.48 102.01 29.36Q101.90 30.24 101.74 31.04L101.74 31.04L83.10 31.04L83.77 27.22L98.68 27.22L96.00 28.40Q96.33 26.51 95.79 25.23Q95.24 23.96 94.03 23.27Q92.81 22.58 91.10 22.58L91.10 22.58Q88.96 22.58 87.47 23.60Q85.99 24.63 85.23 26.43Q84.48 28.23 84.48 30.49L84.48 30.49Q84.48 33.09 85.92 34.37Q87.37 35.64 90.30 35.64L90.30 35.64Q92.02 35.64 93.61 35.10Q95.20 34.55 96.33 33.55L96.33 33.55L99.05 37.86Q97.09 39.41 94.64 40.15Q92.19 40.88 89.63 40.88ZM112.16 40.88L112.16 40.88Q109.19 40.88 106.57 40.21Q103.95 39.54 102.53 38.53L102.53 38.53L105.04 33.80Q106.51 34.76 108.62 35.35Q110.74 35.94 112.88 35.94L112.88 35.94Q115.18 35.94 116.23 35.35Q117.27 34.76 117.27 33.76L117.27 33.76Q117.27 32.96 116.39 32.56Q115.51 32.17 114.17 31.92Q112.83 31.66 111.31 31.33Q109.78 30.99 108.42 30.39Q107.05 29.78 106.20 28.63Q105.34 27.48 105.34 25.59L105.34 25.59Q105.34 23.04 106.78 21.28Q108.23 19.52 110.80 18.60Q113.38 17.67 116.65 17.67L116.65 17.67Q118.99 17.67 121.21 18.18Q123.43 18.68 124.98 19.56L124.98 19.56L122.64 24.33Q121.04 23.33 119.31 22.97Q117.57 22.62 115.98 22.62L115.98 22.62Q113.67 22.62 112.65 23.27Q111.62 23.92 111.62 24.84L111.62 24.84Q111.62 25.63 112.48 26.07Q113.34 26.51 114.68 26.78Q116.02 27.06 117.57 27.37Q119.12 27.69 120.46 28.29Q121.80 28.90 122.66 30.01Q123.51 31.12 123.51 33.00L123.51 33.00Q123.51 35.56 122.03 37.34Q120.54 39.12 117.99 40.00Q115.43 40.88 112.16 40.88ZM134.40 40.88L134.40 40.88Q131.43 40.88 128.81 40.21Q126.20 39.54 124.77 38.53L124.77 38.53L127.28 33.80Q128.75 34.76 130.87 35.35Q132.98 35.94 135.12 35.94L135.12 35.94Q137.42 35.94 138.47 35.35Q139.51 34.76 139.51 33.76L139.51 33.76Q139.51 32.96 138.63 32.56Q137.76 32.17 136.41 31.92Q135.07 31.66 133.55 31.33Q132.02 30.99 130.66 30.39Q129.29 29.78 128.44 28.63Q127.58 27.48 127.58 25.59L127.58 25.59Q127.58 23.04 129.02 21.28Q130.47 19.52 133.04 18.60Q135.62 17.67 138.89 17.67L138.89 17.67Q141.23 17.67 143.45 18.18Q145.67 18.68 147.22 19.56L147.22 19.56L144.88 24.33Q143.28 23.33 141.55 22.97Q139.81 22.62 138.22 22.62L138.22 22.62Q135.91 22.62 134.89 23.27Q133.86 23.92 133.86 24.84L133.86 24.84Q133.86 25.63 134.72 26.07Q135.58 26.51 136.92 26.78Q138.26 27.06 139.81 27.37Q141.36 27.69 142.70 28.29Q144.04 28.90 144.90 30.01Q145.75 31.12 145.75 33.00L145.75 33.00Q145.75 35.56 144.27 37.34Q142.78 39.12 140.23 40.00Q137.67 40.88 134.40 40.88ZM173.57 40.54L166.78 40.54L171.51 16.75L162.13 16.75L163.26 11.22L188.81 11.22L187.68 16.75L178.34 16.75L173.57 40.54ZM192.71 40.54L186.17 40.54L190.65 18.01L196.85 18.01L195.55 24.42L194.97 22.58Q196.48 19.85 198.90 18.76Q201.33 17.67 204.73 17.67L204.73 17.67L203.55 23.71Q203.14 23.66 202.78 23.64Q202.42 23.62 202.05 23.62L202.05 23.62Q199.16 23.62 197.33 25.05Q195.51 26.47 194.88 29.65L194.88 29.65L192.71 40.54ZM213.86 40.88L213.86 40.88Q211.09 40.88 209.08 39.68Q207.07 38.49 206.23 36.19Q205.40 33.88 206.07 30.49L206.07 30.49L208.54 18.01L215.07 18.01L212.68 30.07Q212.18 32.54 213.08 33.88Q213.98 35.22 216.29 35.22L216.29 35.22Q218.72 35.22 220.37 33.80Q222.02 32.38 222.57 29.44L222.57 29.44L224.87 18.01L231.41 18.01L226.93 40.54L220.73 40.54L221.98 34.18L222.90 36.10Q221.31 38.57 218.93 39.73Q216.54 40.88 213.86 40.88ZM244.89 40.88L244.89 40.88Q241.42 40.88 238.84 39.62Q236.27 38.37 234.84 36.10Q233.42 33.84 233.42 30.78L233.42 30.78Q233.42 27.01 235.18 24.06Q236.94 21.11 240.03 19.39Q243.13 17.67 247.15 17.67L247.15 17.67Q250.76 17.67 253.40 19.16Q256.03 20.65 257.29 23.37L257.29 23.37L251.76 26.14Q251.05 24.54 249.77 23.81Q248.50 23.08 246.74 23.08L246.74 23.08Q244.81 23.08 243.30 24.02Q241.79 24.96 240.91 26.62Q240.03 28.27 240.03 30.45L240.03 30.45Q240.03 32.75 241.40 34.11Q242.76 35.48 245.27 35.48L245.27 35.48Q246.99 35.48 248.41 34.74Q249.84 34.01 250.80 32.46L250.80 32.46L255.62 35.48Q254.02 38.03 251.20 39.45Q248.37 40.88 244.89 40.88ZM270.07 31.20L264.29 36.02L265.71 27.94L277.81 18.01L286.32 18.01L273.71 28.52L270.07 31.20ZM264.29 40.54L257.75 40.54L263.95 9.47L270.48 9.47L264.29 40.54ZM282.30 40.54L274.71 40.54L268.93 31.08L273.50 26.09L282.30 40.54ZM296.74 40.88L296.74 40.88Q293.23 40.88 290.65 39.62Q288.08 38.37 286.65 36.10Q285.23 33.84 285.23 30.78L285.23 30.78Q285.23 27.01 286.92 24.06Q288.62 21.11 291.61 19.39Q294.61 17.67 298.50 17.67L298.50 17.67Q301.81 17.67 304.20 18.91Q306.59 20.15 307.91 22.34Q309.23 24.54 309.23 27.60L309.23 27.60Q309.23 28.48 309.12 29.36Q309.02 30.24 308.85 31.04L308.85 31.04L290.21 31.04L290.88 27.22L305.79 27.22L303.11 28.40Q303.45 26.51 302.90 25.23Q302.36 23.96 301.14 23.27Q299.93 22.58 298.21 22.58L298.21 22.58Q296.07 22.58 294.59 23.60Q293.10 24.63 292.35 26.43Q291.59 28.23 291.59 30.49L291.59 30.49Q291.59 33.09 293.04 34.37Q294.48 35.64 297.42 35.64L297.42 35.64Q299.13 35.64 300.72 35.10Q302.32 34.55 303.45 33.55L303.45 33.55L306.17 37.86Q304.20 39.41 301.75 40.15Q299.30 40.88 296.74 40.88ZM317.60 40.54L311.07 40.54L315.55 18.01L321.75 18.01L320.45 24.42L319.86 22.58Q321.37 19.85 323.80 18.76Q326.23 17.67 329.62 17.67L329.62 17.67L328.45 23.71Q328.03 23.66 327.68 23.64Q327.32 23.62 326.94 23.62L326.94 23.62Q324.05 23.62 322.23 25.05Q320.41 26.47 319.78 29.65L319.78 29.65L317.60 40.54ZM337.33 40.88L337.33 40.88Q334.36 40.88 331.74 40.21Q329.12 39.54 327.70 38.53L327.70 38.53L330.21 33.80Q331.68 34.76 333.79 35.35Q335.91 35.94 338.04 35.94L338.04 35.94Q340.35 35.94 341.39 35.35Q342.44 34.76 342.44 33.76L342.44 33.76Q342.44 32.96 341.56 32.56Q340.68 32.17 339.34 31.92Q338.00 31.66 336.47 31.33Q334.94 30.99 333.58 30.39Q332.22 29.78 331.36 28.63Q330.50 27.48 330.50 25.59L330.50 25.59Q330.50 23.04 331.95 21.28Q333.39 19.52 335.97 18.60Q338.54 17.67 341.81 17.67L341.81 17.67Q344.16 17.67 346.38 18.18Q348.60 18.68 350.15 19.56L350.15 19.56L347.80 24.33Q346.21 23.33 344.47 22.97Q342.73 22.62 341.14 22.62L341.14 22.62Q338.84 22.62 337.81 23.27Q336.79 23.92 336.79 24.84L336.79 24.84Q336.79 25.63 337.64 26.07Q338.50 26.51 339.84 26.78Q341.18 27.06 342.73 27.37Q344.28 27.69 345.62 28.29Q346.96 28.90 347.82 30.01Q348.68 31.12 348.68 33.00L348.68 33.00Q348.68 35.56 347.19 37.34Q345.71 39.12 343.15 40.00Q340.60 40.88 337.33 40.88Z" transform="translate(0, 0)"></path></g></svg></g></svg>
