<svg xmlns="http://www.w3.org/2000/svg" version="1.1" xmlns:xlink="http://www.w3.org/1999/xlink" width="512" height="512" x="0" y="0" viewBox="0 0 16 16" style="enable-background:new 0 0 512 512" xml:space="preserve" class=""><g transform="matrix(1,0,0,1,0,0)"><path fill="#11024d" d="M13.93 5.78a.56.56 0 0 1-.17-.4V3.8a1.562 1.562 0 0 0-1.56-1.56h-1.58a.561.561 0 0 1-.4-.17L9.11.96a1.575 1.575 0 0 0-2.22 0L5.78 2.07a.561.561 0 0 1-.4.17H3.8A1.562 1.562 0 0 0 2.24 3.8v1.58a.56.56 0 0 1-.17.4L.96 6.89a1.575 1.575 0 0 0 0 2.22l1.11 1.11a.56.56 0 0 1 .17.4v1.58a1.562 1.562 0 0 0 1.56 1.56h1.58a.561.561 0 0 1 .4.17l1.11 1.11a1.57 1.57 0 0 0 2.22 0l1.11-1.11a.561.561 0 0 1 .4-.17h1.58a1.562 1.562 0 0 0 1.56-1.56v-1.58a.56.56 0 0 1 .17-.4l1.11-1.11a1.575 1.575 0 0 0 0-2.22zm-3.58 1.24L7.69 9.69a.52.52 0 0 1-.71 0L5.65 8.35a.495.495 0 0 1 .7-.7l.98.98 2.32-2.32a.501.501 0 0 1 .7 0 .495.495 0 0 1 0 .71z" opacity="1" data-original="#5ecbf1" class=""></path><path fill="#e97633" d="M13.93 5.78a.56.56 0 0 1-.17-.4V3.8a1.562 1.562 0 0 0-1.56-1.56h-1.58a.561.561 0 0 1-.4-.17L9.11.96A1.565 1.565 0 0 0 8 .502V7.96l1.65-1.65a.501.501 0 0 1 .7 0 .495.495 0 0 1 0 .71L8 9.379V15.5a1.559 1.559 0 0 0 1.11-.46l1.11-1.11a.561.561 0 0 1 .4-.17h1.58a1.562 1.562 0 0 0 1.56-1.56v-1.58a.56.56 0 0 1 .17-.4l1.11-1.11a1.575 1.575 0 0 0 0-2.22z" opacity="1" data-original="#4793ff" class=""></path></g></svg>
